# xmcd
#
# Track frame offsets: 
#        150
#        16045
#        31922
#        51110
#        67487
#        87987
#        95035
#        112857
#        129900
#        147995
#        166540
#        183280
#        200245
#        218682
#        236185
#        245527
#        265290
#        280047
#
# Disc length: 4061 seconds
#
# Revision: 0
# Processed by: cddbd v1.5.2PL0 Copyright (c) Steve Scherf et al.
# Submitted via: ExactAudioCopy v0.99pb4
#
DISCID=010fdb12
DTITLE=Big Pokey - D-Game 2000
DYEAR=2000
DGENRE=Texas Rap
TTITLE0=Untamed Gorilla
TTITLE1=Dope Game 2000 (Feat. Godfather, Mike D)
TTITLE2=That's All We Had (Feat. Lil O)
TTITLE3=Menagae 'Tois (Feat. Mike D)
TTITLE4=On Choppers (Feat. Big Moe)
TTITLE5=Niggas (Interlude)
TTITLE6=Swallowed By The Game
TTITLE7=Mind And Muscle
TTITLE8=Still Off The Chain (Feat. Hawk, Carman Sandiego)
TTITLE9=Why Yall Still Talking Down (Feat. Big E, Chris Ward, Mafia Mi
TTITLE9=ke)
TTITLE10=Duck-N-Buss (Feat. Godfather)
TTITLE11=Little Mama's (Feat. Godfather, Chris Ward)
TTITLE12=Look Twice (Feat. Lil O)
TTITLE13=Throwed-N-Da Game
TTITLE14=Hear My Cry (Interlude)
TTITLE15=Get Out Our Way (Feat. Mafia Mike, Chris Ward)
TTITLE16=That's The Way (Feat. 1 1 00)
TTITLE17=Keep My Name Out Yo Mouth (Feat. Mike D, Willean, Mr. 3-2, Ma
TTITLE17=fia Mike, Chris Ward)
EXTD=
EXTT0=
EXTT1=
EXTT2=
EXTT3=
EXTT4=
EXTT5=
EXTT6=
EXTT7=
EXTT8=
EXTT9=
EXTT10=
EXTT11=
EXTT12=
EXTT13=
EXTT14=
EXTT15=
EXTT16=
EXTT17=
PLAYORDER=
